PathFileType	3	(X/Y/Z)	walking_2__view1_aligned.trc
DataRate	CameraRate	NumFrames	NumMarkers	Units	OrigDataRate	OrigDataStartFrame	OrigNumFrames
100.0	100.0	11	19	mm	100.0	5717	6300
Frame#	Time	pelvis			neck			head			hip_left			hip_right			knee_left			knee_right			ankle_left			ankle_right			heel_left			heel_right			toe_left			toe_right			shoulder_left			shoulder_right			elbow_left			elbow_right			wrist_left			wrist_right			
		X1	Y1	Z1	X2	Y2	Z2	X3	Y3	Z3	X4	Y4	Z4	X5	Y5	Z5	X6	Y6	Z6	X7	Y7	Z7	X8	Y8	Z8	X9	Y9	Z9	X10	Y10	Z10	X11	Y11	Z11	X12	Y12	Z12	X13	Y13	Z13	X14	Y14	Z14	X15	Y15	Z15	X16	Y16	Z16	X17	Y17	Z17	X18	Y18	Z18	X19	Y19	Z19	
5717	57.16000	87.787667	948.367957	76.314053	42.228571	1500.074828	176.179812	43.539084	1561.164762	331.191460	164.942660	954.593110	83.597753	10.632604	942.142792	69.030415	137.680360	523.742498	200.635496	-55.015658	526.410729	200.697337	130.955242	107.453925	165.254889	-75.069898	223.753556	-70.003565	133.296604	56.598805	134.051592	-69.776199	208.495519	-122.996306	105.817344	63.878931	352.534798	-93.754733	70.439130	20.726378	228.108541	1468.067025	143.085659	-131.168302	1428.437315	131.370991	296.975449	1187.106496	68.188880	-163.708577	1133.729416	120.605081	309.411128	939.199749	119.228641	-160.735782	925.674168	253.528495
5718	57.17000	89.266176	948.499732	75.228734	43.290135	1500.407940	175.614212	43.957335	1562.391201	330.353334	166.445238	954.843774	82.621832	12.087008	942.155673	67.835730	138.998056	523.151178	193.728425	-53.259800	527.860356	205.609607	131.933293	107.263902	153.006969	-72.617082	223.998771	-58.712069	134.184306	56.661506	121.252656	-67.152328	208.179362	-111.029641	107.280096	62.094653	340.079064	-92.109223	72.907508	33.210197	229.421892	1468.141114	144.552909	-129.741879	1428.656013	128.821451	299.922614	1187.245449	73.262349	-161.435494	1133.997598	114.509728	311.843330	940.164384	128.263100	-161.233386	922.752707	241.822860
5719	57.18000	90.744685	948.631508	74.143416	44.351700	1500.741051	175.048613	44.375586	1563.617641	329.515209	167.947816	955.094439	81.645910	13.541412	942.168554	66.641045	140.315752	522.559859	186.821354	-51.503942	529.309983	210.521877	132.911344	107.073879	140.759049	-70.164265	224.243986	-47.420573	135.072008	56.724206	108.453720	-64.528457	207.863205	-99.062977	108.742847	60.310374	327.623330	-90.463714	75.375886	45.694016	230.735244	1468.215203	146.020160	-128.315455	1428.874712	126.271910	302.869779	1187.384401	78.335817	-159.162412	1134.265781	108.414375	314.275532	941.129018	137.297559	-161.730991	919.831246	230.117225
5720	57.19000	92.223194	948.763284	73.058097	45.413265	1501.074163	174.483014	44.793837	1564.844080	328.677083	169.450393	955.345104	80.669989	14.995817	942.181434	65.446360	141.633447	521.968539	179.914283	-49.748084	530.759610	215.434147	133.889394	106.883855	128.511129	-67.711449	224.489201	-36.129077	135.959710	56.786906	95.654784	-61.904586	207.547048	-87.096312	110.205598	58.526096	315.167595	-88.818205	77.844263	58.177835	232.048595	1468.289291	147.487410	-126.889032	1429.093411	123.722370	305.816944	1187.523354	83.409285	-156.889329	1134.533963	102.319021	316.707735	942.093653	146.332019	-162.228595	916.909785	218.411590
5721	57.20000	93.701703	948.895059	71.972778	46.474829	1501.407274	173.917414	45.212088	1566.070520	327.838957	170.952971	955.595768	79.694067	16.450221	942.194315	64.251675	142.951143	521.377219	173.007212	-47.992226	532.209237	220.346417	134.867445	106.693832	116.263209	-65.258633	224.734415	-24.837582	136.847412	56.849607	82.855848	-59.280715	207.230891	-75.129647	111.668349	56.741818	302.711861	-87.172696	80.312641	70.661655	233.361947	1468.363380	148.954661	-125.462609	1429.312109	121.172830	308.764109	1187.662306	88.482754	-154.616246	1134.802146	96.223668	319.139937	943.058288	155.366478	-162.726199	913.988325	206.705956
5722	57.21000	95.180212	949.026835	70.887459	47.536394	1501.740386	173.351815	45.630339	1567.296960	327.000832	172.455549	955.846433	78.718145	17.904625	942.207196	63.056990	144.268839	520.785899	166.100141	-46.236368	533.658864	225.258687	135.845495	106.503809	104.015289	-62.805816	224.979630	-13.546086	137.735114	56.912307	70.056912	-56.656844	206.914735	-63.162983	113.131100	54.957540	290.256126	-85.527186	82.781018	83.145474	234.675298	1468.437469	150.421911	-124.036185	1429.530808	118.623290	311.711274	1187.801259	93.556222	-152.343164	1135.070328	90.128315	321.572139	944.022923	164.400937	-163.223803	911.066864	195.000321
5723	57.22000	96.658720	949.158611	69.802140	48.597959	1502.073497	172.786215	46.048590	1568.523399	326.162706	173.958127	956.097097	77.742224	19.359029	942.220077	61.862305	145.586534	520.194580	159.193070	-44.480510	535.108491	230.170958	136.823546	106.313786	91.767369	-60.353000	225.224845	-2.254590	138.622816	56.975008	57.257976	-54.032973	206.598578	-51.196318	114.593851	53.173262	277.800392	-83.881677	85.249396	95.629293	235.988650	1468.511557	151.889162	-122.609762	1429.749506	116.073749	314.658439	1187.940211	98.629691	-150.070081	1135.338511	84.032962	324.004341	944.987558	173.435396	-163.721408	908.145403	183.294686
5724	57.23000	98.137229	949.290386	68.716822	49.659523	1502.406609	172.220616	46.466841	1569.749839	325.324580	175.460705	956.347762	76.766302	20.813434	942.232958	60.667620	146.904230	519.603260	152.285999	-42.724652	536.558118	235.083228	137.801597	106.123763	79.519449	-57.900184	225.470060	9.036906	139.510518	57.037708	44.459040	-51.409103	206.282421	-39.229654	116.056603	51.388984	265.344657	-82.236168	87.717774	108.113112	237.302001	1468.585646	153.356412	-121.183338	1429.968205	113.524209	317.605604	1188.079164	103.703159	-147.796998	1135.606693	77.937609	326.436543	945.952193	182.469855	-164.219012	905.223942	171.589051
5725	57.24000	99.615738	949.422162	67.631503	50.721088	1502.739721	171.655017	46.885091	1570.976278	324.486455	176.963282	956.598427	75.790381	22.267838	942.245838	59.472935	148.221926	519.011940	145.378928	-40.968794	538.007746	239.995498	138.779647	105.933740	67.271528	-55.447368	225.715275	20.328401	140.398220	57.100408	31.660104	-48.785232	205.966264	-27.262989	117.519354	49.604705	252.888923	-80.590659	90.186151	120.596932	238.615353	1468.659735	154.823663	-119.756915	1430.186903	110.974669	320.552769	1188.218117	108.776627	-145.523916	1135.874876	71.842256	328.868745	946.916828	191.504314	-164.716616	902.302481	159.883417
5726	57.25000	99.378382	949.080932	67.032006	50.017452	1502.688916	171.635132	45.830402	1571.457226	324.285244	176.697025	956.261366	75.253161	22.059382	941.900439	58.811160	148.665662	518.068675	138.049107	-40.776892	539.055779	243.568958	139.864947	106.111413	56.138497	-54.836057	223.774768	34.066662	141.548661	57.355930	20.197000	-48.132183	202.850823	-12.498437	118.971764	49.436098	242.093797	-80.228556	92.358192	137.335480	237.963098	1468.591273	156.442495	-119.970479	1430.130405	109.080087	321.721448	1188.426368	113.876649	-145.664590	1136.259426	66.849471	330.561858	947.873072	199.992698	-167.456904	900.599946	149.903590
5727	57.26000	99.141026	948.739701	66.432508	49.313816	1502.638112	171.615248	44.775713	1571.938173	324.084033	176.430768	955.924305	74.715941	21.850926	941.555039	58.149384	149.109399	517.125410	130.719286	-40.584990	540.103812	247.142417	140.950247	106.289085	45.005467	-54.224745	221.834261	47.804923	142.699102	57.611451	8.733897	-47.479134	199.735381	2.266114	120.424175	49.267491	231.298671	-79.866454	94.530232	154.074027	237.310844	1468.522810	158.061327	-120.184044	1430.073906	107.185506	322.890127	1188.634620	118.976671	-145.805264	1136.643977	61.856685	332.254971	948.829317	208.481083	-170.197192	898.897411	139.923763
